<?xml version="1.0" encoding="iso-8859-1"?>
<!-- Uploaded to: SVG Repo, www.svgrepo.com, Generator: SVG Repo Mixer Tools -->
<svg fill="#000000" height="800px" width="800px" version="1.1" id="Layer_1" xmlns="http://www.w3.org/2000/svg" xmlns:xlink="http://www.w3.org/1999/xlink" 
	 viewBox="0 0 491.991 491.991" xml:space="preserve">
<g transform="translate(-1)">
	<g>
		<g>
			<path d="M247.188,287.187h-102.4c-11.311,0-20.48,9.169-20.48,20.48c0,56.551,45.849,102.4,102.4,102.4h20.48
				c11.311,0,20.48-9.169,20.48-20.48v-81.92C267.668,296.356,258.498,287.187,247.188,287.187z M226.708,369.107
				c-26.749,0-49.508-17.098-57.943-40.96h57.943V369.107z"/>
			<path d="M267.668,82.387c-11.305,0-20.48,9.175-20.48,20.48s9.175,20.48,20.48,20.48c11.305,0,20.48-9.175,20.48-20.48
				S278.973,82.387,267.668,82.387z"/>
			<path d="M472.476,61.907h-98.779C352.797,24.953,313.144,0,267.668,0c-67.221,0-121.733,54.512-121.733,121.733
				c0,32.313,10.585,57.41,28.679,76.98c3.96,4.283,10.491,9.995,15.552,14.2c-4.857,8.745-18.491,17.111-36.529,10.825
				c-9.247-3.225-18.162-9.086-26.193-17.117l-54.702-54.702c-13.182-13.182-34.902-11.514-45.984,3.428
				C8.342,180.28-3.068,236.278,2.416,289.515c0.047,4.967,0.898,15.938,3,29.877c3.496,23.183,9.377,46.404,18.287,68.294
				c20.076,49.325,52.601,84.931,100.093,98.997c12.476,3.676,25.759,5.308,40.181,5.308h63.119
				c30.338,0,59.934-8.845,85.175-25.507c1.232-0.811,1.232-0.811,2.267-1.498c69.927-47.027,96.248-137.467,59.216-210.953
				c-1.849-3.67-2.671-5.843-5.725-14.698c-4.421-12.817-8.819-21.866-15.743-29.3c6.283-8.301,12.028-16.741,17.028-25.248h21.242
				c56.551,0,102.4-45.849,102.4-102.4C492.956,71.076,483.787,61.907,472.476,61.907z M291.853,430.883
				c-1.106,0.733-1.106,0.733-2.009,1.328c-18.666,12.321-40.413,18.82-62.747,18.82h-63.119c-10.744,0-20.202-1.162-28.577-3.63
				c-33.934-10.051-57.97-36.364-73.759-75.157c-7.57-18.6-12.677-38.762-15.723-58.961c-1.068-7.085-1.799-13.647-2.253-19.499
				c-0.265-3.41-0.378-5.75-0.402-6.834c-3.798-37.391,1.854-75.098,10.472-96.113l44.745,44.745
				c12.204,12.204,26.294,21.468,41.673,26.831c52.55,18.313,92.434-20.24,92.901-55.748c0.002-6.948-2.66-13.274-7.57-17.933
				c0.184,0.176-15.819-12.446-20.795-17.828c-11.336-12.26-17.794-27.573-17.794-49.173c0-44.6,36.174-80.773,80.773-80.773
				c33.721,0,62.612,20.686,74.706,50.052c0.416,1.012,0.824,2.027,1.198,3.053c0.047,0.128,0.085,0.259,0.131,0.387
				c0.403,1.123,0.788,2.251,1.14,3.389c0.109,0.352,0.199,0.712,0.303,1.066c0.269,0.913,0.539,1.826,0.775,2.748
				c0.19,0.742,0.349,1.496,0.519,2.246c0.122,0.54,0.259,1.075,0.37,1.618c0.257,1.261,0.484,2.534,0.682,3.816
				c0.005,0.034,0.013,0.068,0.018,0.102c0.613,4.009,0.93,8.115,0.93,12.295c0,0.629-0.017,1.267-0.049,1.913
				c-0.012,0.23-0.032,0.465-0.049,0.698c-0.019,0.297-0.04,0.596-0.066,0.896c-0.772,8.273-4.166,18.391-9.942,29.843
				c-0.452,0.896-0.827,1.802-1.137,2.713c-6.915,13.087-16.448,26.73-26.954,39.292c-9.895,11.67-6.426,29.136,6.474,36.703
				c6.416,3.795,8.523,7.112,12.59,18.902c3.706,10.742,4.872,13.828,7.868,19.774C364.697,327.077,344.86,395.233,291.853,430.883z
				 M390.556,143.827h-3.904c1.481-6.149,2.387-12.275,2.656-18.354c0.06-1.252,0.102-2.501,0.102-3.744
				c0-0.409-0.02-0.815-0.024-1.224c-0.009-0.87-0.024-1.739-0.05-2.605c-0.019-0.595-0.041-1.19-0.068-1.784
				c-0.049-1.074-0.111-2.145-0.187-3.211c-0.035-0.487-0.075-0.972-0.116-1.458c-0.091-1.084-0.196-2.163-0.315-3.238
				c-0.044-0.396-0.088-0.791-0.136-1.186c-0.165-1.369-0.348-2.732-0.559-4.087c-0.004-0.023-0.006-0.045-0.009-0.068h60.554
				C440.064,126.729,417.304,143.827,390.556,143.827z"/>
		</g>
	</g>
</g>
</svg>